<?xml version="1.0" encoding="UTF-8"?>
<svg width="10px" height="12px" viewBox="0 0 10 12" version="1.1" xmlns="http://www.w3.org/2000/svg" xmlns:xlink="http://www.w3.org/1999/xlink">
    <!-- Generator: Sketch 45.1 (43504) - http://www.bohemiancoding.com/sketch -->
    <title>MyDownload</title>
    <desc>Created with Sketch.</desc>
    <defs></defs>
    <g id="Icondrop" stroke="none" stroke-width="1" fill="none" fill-rule="evenodd">
        <g id="Search-Result" transform="translate(-265.000000, -55.000000)" fill-rule="nonzero" fill="#343434">
            <g id="Group-3" transform="translate(-2.000000, 0.000000)">
                <g id="MyDownload" transform="translate(267.000000, 55.000000)">
                    <g id="Group">
                        <path d="M4.43528152,0.100151518 L4.43528152,6.06632053 L3.01885291,4.75004343 L2.23194812,5.5798703 L4.60696984,7.79751106 C4.72142872,7.89766258 4.85019495,7.95489202 4.99326855,7.95489202 C5.13634215,7.95489202 5.27941575,7.89766258 5.37956726,7.79751106 L7.7832037,5.5798703 L6.99629891,4.75004343 L5.5798703,6.06632053 L5.5798703,0.100151518 L4.43528152,0.100151518 Z" id="Shape"></path>
                        <path d="M9.9150003,3.00454555 C9.9150003,2.44655852 9.47147215,2.00303036 8.91348512,2.00303036 L7.01060627,2.00303036 L7.01060627,3.14761914 L8.77041152,3.14761914 L8.77041152,9.9150003 L1.2447403,9.9150003 L1.2447403,3.14761914 L3.00454555,3.14761914 L3.00454555,2.00303036 L1.1016667,2.00303036 C0.54367967,2.00303036 0.100151518,2.44655852 0.100151518,3.00454555 L0.100151518,10.0580739 C0.100151518,10.6160609 0.54367967,11.0595891 1.1016667,11.0595891 L8.91348512,11.0595891 C9.47147215,11.0595891 9.9150003,10.6160609 9.9150003,10.0580739 L9.9150003,3.00454555 Z" id="Shape"></path>
                    </g>
                </g>
            </g>
        </g>
    </g>
</svg>