<?xml version="1.0" encoding="UTF-8"?>
<svg width="7px" height="10px" viewBox="0 0 7 10" version="1.1" xmlns="http://www.w3.org/2000/svg" xmlns:xlink="http://www.w3.org/1999/xlink">
    <!-- Generator: Sketch 46.2 (44496) - http://www.bohemiancoding.com/sketch -->
    <title>Group 6</title>
    <desc>Created with Sketch.</desc>
    <defs></defs>
    <g id="Adobe-tool-plugin" stroke="none" stroke-width="1" fill="none" fill-rule="evenodd">
        <g id="Search-Result" transform="translate(-85.000000, -112.000000)" fill="#C3C3C3">
            <g id="Group-12" transform="translate(74.000000, 106.000000)">
                <g id="Group-6" transform="translate(11.000000, 6.000000)">
                    <path d="M3.07852991,9.8695509 L0.14149884,6.84853507 L0.14149884,6.84853507 C-0.0509917637,6.65054017 -0.0465296535,6.33398913 0.151465242,6.14149853 C0.244795949,6.05076243 0.369832496,6 0.500000312,6 L6.37406246,6 L6.37406246,6 C6.65020484,6 6.87406246,6.22385763 6.87406246,6.5 C6.87406246,6.63016782 6.82330003,6.75520436 6.73256393,6.84853507 L3.79553286,9.8695509 L3.79553286,9.8695509 C3.60304225,10.0675458 3.28649121,10.0720079 3.08849632,9.8795173 C3.08512752,9.87624216 3.08180506,9.8729197 3.07852991,9.8695509 Z" id="Triangle"></path>
                    <path d="M2.5,0 L4.5,0 L4.5,0 C4.77614237,-5.07265313e-17 5,0.223857625 5,0.5 L5,7 L2,7 L2,0.5 L2,0.5 C2,0.223857625 2.22385763,5.07265313e-17 2.5,0 Z" id="Rectangle-6"></path>
                </g>
            </g>
        </g>
    </g>
</svg>