<?xml version="1.0" encoding="UTF-8"?>
<svg width="150px" height="132px" viewBox="0 0 150 132" version="1.1" xmlns="http://www.w3.org/2000/svg" xmlns:xlink="http://www.w3.org/1999/xlink">
    <!-- Generator: Sketch 45.1 (43504) - http://www.bohemiancoding.com/sketch -->
    <title>Result not Found Logo</title>
    <desc>Created with Sketch.</desc>
    <defs></defs>
    <g id="Logodrop" stroke="none" stroke-width="1" fill="none" fill-rule="evenodd">
        <g id="No-Result-Found-:-Logodrop" transform="translate(-120.000000, -194.000000)">
            <g id="Group" transform="translate(73.000000, 194.000000)">
                <g id="Result-not-Found-Logo" transform="translate(47.000000, 0.000000)">
                    <ellipse id="Oval-3" fill="#F9F9F9" cx="70.6843193" cy="66.2" rx="63.6843193" ry="59"></ellipse>
                    <path d="M15.8212397,105.740903 C6.05231084,94.3438189 0.702659317,80.3882062 0.702659317,66.2 C0.702659317,30.1480006 33.9635362,0.608620462 74.9,0.608620462 C115.836464,0.608620462 149.097341,30.1480006 149.097341,66.2 C149.097341,102.251999 115.836464,131.79138 74.9,131.79138 C68.1547872,131.79138 61.4095744,131.093599 54.8969552,129.465444 C52.8036133,129.000257 51.6406456,126.906915 52.1058326,125.046167 C52.5710197,122.952825 54.6643616,121.789857 56.52511,122.255044 C62.3399486,123.650605 68.6199743,124.348386 74.6674065,124.348386 C111.417186,124.348386 141.421754,98.2979091 141.421754,66.2 C141.421754,34.1020909 111.417186,8.05161388 74.6674065,8.05161388 C37.9176264,8.05161388 8.14565274,34.1020909 8.14565274,66.2 C8.14565274,79.457832 13.2627107,92.0178834 22.799046,102.484593 C23.7294202,103.414967 23.9620138,105.043122 23.4968267,106.20609 C21.4034848,111.555741 18.6123622,115.975019 14.658272,119.463922 C20.2405171,119.696515 27.6835105,118.766141 34.6613168,114.579457 C36.5220652,113.41649 38.6154071,114.11427 39.7783748,115.742425 C40.9413425,117.603173 40.2435619,119.696515 38.6154071,120.859483 C27.4509169,127.604696 15.3560526,127.139509 9.30862046,126.209134 C6.98268502,125.976541 5.12193666,124.115793 4.65674957,121.789857 C4.19156248,119.463922 5.12193666,117.137986 6.98268502,115.742425 C10.7041817,113.881677 13.7278978,110.16018 15.8212397,105.740903 Z M50.7102714,88.5289803 C49.7798972,90.3897286 50.2450843,92.4830705 52.1058326,93.6460382 C52.5710197,93.8786318 53.2688004,94.1112253 53.966581,94.1112253 C55.3621423,94.1112253 56.52511,93.4134447 57.2228906,92.250477 C60.4792002,86.4356384 67.4570066,82.7141417 75.1325935,82.7141417 C82.8081805,82.7141417 89.5533933,86.4356384 92.8097029,92.250477 C93.7400771,94.1112253 96.0660125,94.5764124 97.9267609,93.6460382 C99.7875093,92.7156641 100.252696,90.3897286 99.3223222,88.5289803 C94.6704513,80.3882062 85.3667095,75.2711482 75.1325935,75.2711482 C64.665884,75.2711482 55.3621423,80.3882062 50.7102714,88.5289803 Z" id="Shape" fill="#C9C9C9" fill-rule="nonzero"></path>
                    <circle id="Oval" fill="#C9C9C9" cx="51" cy="52" r="6"></circle>
                    <circle id="Oval-Copy" fill="#C9C9C9" cx="97" cy="52" r="6"></circle>
                </g>
            </g>
        </g>
    </g>
</svg>